<?xml version="1.0" standalone="no"?>
<!DOCTYPE svg PUBLIC "-//W3C//DTD SVG 20010904//EN"
 "http://www.w3.org/TR/2001/REC-SVG-20010904/DTD/svg10.dtd">
<svg version="1.0" xmlns="http://www.w3.org/2000/svg"
 width="4016.000000pt" height="4016.000000pt" viewBox="0 0 4016.000000 4016.000000"
 preserveAspectRatio="xMidYMid meet">

<g transform="translate(0.000000,4016.000000) scale(0.100000,-0.100000)"
fill="#000000" stroke="none">
<path d="M19150 31814 c-85 -25 -195 -56 -245 -70 -90 -25 -251 -96 -303 -132
-15 -11 -72 -37 -127 -57 -121 -45 -302 -136 -489 -245 -76 -45 -149 -86 -163
-91 -13 -5 -50 -26 -81 -48 -32 -21 -74 -46 -93 -54 -28 -11 -40 -26 -63 -76
l-27 -61 16 -96 c25 -143 4 -218 -89 -314 -69 -72 -221 -248 -269 -313 -22
-29 -54 -83 -73 -120 -19 -37 -55 -97 -79 -133 -25 -36 -79 -132 -120 -213
-67 -133 -85 -158 -174 -255 l-99 -107 -4 -122 c-4 -105 -9 -135 -38 -217 -18
-52 -53 -137 -77 -189 -37 -77 -46 -107 -50 -170 -5 -64 -13 -90 -51 -166 -24
-49 -69 -159 -99 -245 -30 -85 -78 -218 -108 -295 -96 -250 -134 -372 -170
-548 -20 -94 -50 -212 -67 -261 -29 -84 -30 -94 -23 -185 4 -53 8 -244 10
-426 2 -293 1 -341 -17 -430 -18 -94 -18 -109 -5 -243 l14 -142 55 -83 56 -83
-30 -80 c-34 -93 -36 -85 57 -224 198 -299 276 -446 364 -679 101 -268 213
-436 427 -640 169 -162 527 -438 668 -516 92 -50 145 -101 216 -205 62 -89
178 -212 244 -256 21 -15 65 -37 98 -51 75 -30 128 -60 346 -190 287 -173 286
-173 630 -218 l292 -39 89 23 c102 27 179 25 321 -4 64 -14 138 -19 300 -20
118 -2 236 -7 262 -12 57 -12 166 13 351 83 67 25 196 63 287 84 249 58 406
118 695 265 300 153 582 324 961 583 210 142 212 144 218 186 18 110 55 169
132 206 49 24 158 42 269 44 67 2 76 5 215 80 151 82 230 131 230 145 0 21
119 121 200 167 49 29 113 69 140 89 l50 37 0 98 c0 86 4 111 34 197 18 54 55
148 81 208 27 61 63 153 81 205 30 86 37 99 81 133 26 21 85 70 131 108 l82
69 0 130 0 130 103 140 102 140 -12 117 c-17 160 -18 347 -3 408 7 28 24 74
37 104 16 36 23 72 22 110 0 31 -1 106 -1 166 -2 107 -1 114 47 250 45 129 49
149 53 255 4 130 -3 167 -67 350 -22 63 -50 169 -61 235 -12 66 -33 180 -47
254 l-26 134 -83 105 c-76 97 -87 115 -120 216 -21 61 -72 178 -115 261 -42
82 -89 187 -103 233 -37 117 -49 137 -136 227 -47 49 -92 107 -114 150 -21 39
-48 81 -61 95 -12 14 -35 50 -50 80 -18 36 -68 96 -145 175 -95 97 -140 154
-233 295 -64 96 -123 182 -131 192 -16 18 -80 32 -208 46 -74 8 -92 13 -126
40 -69 55 -102 152 -102 301 l0 89 -147 109 c-391 290 -486 338 -751 382 -62
11 -129 28 -150 39 -163 85 -202 108 -237 141 -22 21 -90 75 -151 120 l-112
81 -73 0 c-41 0 -137 -5 -214 -10 -521 -36 -734 -32 -925 17 -128 33 -243 41
-660 47 l-315 5 -155 -45z"/>
<path d="M12925 27885 c-140 -29 -171 -41 -305 -114 -376 -203 -707 -280
-1155 -268 -156 4 -226 2 -273 -7 -35 -8 -65 -15 -67 -18 -2 -2 -12 -46 -23
-99 -26 -125 -61 -196 -135 -276 -79 -84 -89 -91 -428 -280 -157 -88 -342
-197 -410 -241 -68 -44 -141 -85 -161 -92 -31 -9 -43 -22 -70 -71 -42 -79
-105 -134 -177 -155 -242 -69 -300 -99 -350 -182 -63 -102 -177 -245 -299
-374 -198 -210 -344 -372 -353 -393 -4 -11 -29 -101 -54 -200 -75 -288 -137
-399 -258 -460 -180 -91 -158 -71 -196 -187 -45 -137 -78 -200 -146 -278 -31
-36 -67 -83 -80 -105 -26 -44 -151 -407 -210 -610 l-37 -127 35 -107 c20 -58
47 -144 60 -192 l25 -85 -19 -109 c-10 -60 -26 -133 -35 -162 -20 -63 -14
-160 17 -281 28 -110 63 -178 173 -339 53 -78 121 -181 151 -229 l55 -87 0
-117 c0 -152 16 -306 41 -400 11 -41 53 -180 95 -308 69 -213 77 -234 102
-243 34 -14 126 -5 177 17 75 31 155 7 207 -61 13 -17 13 -30 2 -95 -28 -161
-30 -154 112 -351 70 -96 135 -193 145 -217 19 -44 48 -151 69 -254 9 -44 16
-58 28 -58 10 0 53 -18 95 -40 43 -22 95 -45 116 -51 32 -10 43 -20 62 -61 14
-31 23 -67 22 -92 -2 -73 -11 -180 -18 -228 -12 -78 4 -102 79 -121 84 -21
152 -54 177 -86 11 -14 45 -66 76 -115 30 -50 107 -160 172 -245 64 -86 138
-198 164 -248 54 -105 72 -120 227 -198 119 -60 149 -83 195 -150 36 -52 42
-56 164 -105 505 -207 533 -220 656 -302 33 -23 97 -72 142 -110 66 -56 97
-74 165 -98 161 -56 233 -69 434 -79 261 -14 349 -28 859 -135 273 -57 626
-62 784 -10 45 14 75 16 190 10 75 -3 206 -9 291 -12 l155 -6 48 45 c132 124
259 185 490 232 104 21 124 28 160 60 23 19 69 56 102 82 33 25 81 66 106 91
45 42 56 47 272 112 124 37 229 70 235 74 6 3 43 67 84 142 40 75 82 143 93
150 22 14 211 68 358 102 92 22 188 65 247 112 19 15 71 64 116 107 45 44 123
111 175 150 117 87 190 166 228 247 29 60 34 64 98 94 76 34 162 61 231 71
l46 6 57 125 c32 69 73 159 92 200 25 54 58 101 118 166 65 71 90 107 111 160
16 40 56 107 96 159 l69 91 -23 174 -23 175 50 200 c54 215 123 458 145 511
12 27 11 40 -2 86 -37 127 -137 286 -255 409 -49 50 -67 60 -184 106 -71 28
-173 65 -225 81 -105 33 -322 119 -415 164 -33 17 -103 58 -155 93 -166 108
-399 236 -495 270 -27 10 -79 29 -115 43 -53 21 -83 26 -160 26 -52 0 -111 -5
-131 -12 -41 -14 -131 -104 -202 -200 -47 -64 -147 -253 -186 -354 -13 -31
-30 -60 -39 -63 -10 -4 -107 -38 -217 -75 -256 -87 -314 -115 -388 -187 -68
-66 -382 -430 -444 -514 -23 -31 -63 -75 -90 -99 -59 -52 -310 -176 -448 -221
-67 -22 -111 -43 -135 -64 -19 -18 -57 -49 -85 -70 -27 -21 -71 -59 -96 -83
l-47 -44 -83 21 c-202 50 -518 91 -696 91 l-104 0 -158 86 c-87 47 -208 102
-267 123 -191 66 -303 136 -431 267 l-83 85 0 112 c0 158 -5 181 -43 195 -155
58 -225 173 -246 402 -32 351 -33 361 -19 550 18 259 16 445 -6 550 -32 147
-22 231 34 295 10 11 64 108 120 215 119 227 167 301 247 388 49 53 76 71 178
120 66 33 142 67 169 77 50 19 70 43 140 167 24 42 47 65 150 150 l29 24 -18
35 c-10 19 -31 51 -48 72 -19 25 -31 54 -35 82 -4 42 -2 48 36 85 44 45 56 47
139 25 90 -24 177 -21 250 9 34 14 144 51 245 82 l183 56 240 -6 c132 -3 254
-8 270 -11 32 -6 28 -9 112 106 15 20 23 51 27 97 8 86 34 208 52 248 19 38
67 68 98 60 12 -3 39 -19 60 -35 45 -36 123 -55 162 -41 l27 11 -7 131 c-4 73
-20 249 -36 392 -49 430 -41 689 30 910 l30 94 -45 72 c-93 151 -131 287 -161
568 l-16 147 -58 60 c-31 33 -70 84 -86 113 -59 111 -167 181 -312 202 -37 5
-205 32 -374 60 -168 27 -308 50 -310 49 -1 0 -52 -11 -113 -24z"/>
<path d="M28455 22938 c-44 -5 -123 -18 -175 -29 -52 -12 -135 -25 -185 -30
-631 -68 -2006 -294 -2327 -383 l-87 -24 -88 19 c-48 10 -139 31 -202 46 -105
24 -120 26 -190 16 -93 -14 -159 -36 -220 -73 -74 -45 -152 -64 -238 -56 -81
8 -209 42 -318 85 l-70 28 -130 -54 c-191 -80 -278 -103 -430 -113 -120 -8
-284 -38 -407 -75 -60 -17 -180 -8 -330 26 -119 26 -257 35 -327 20 -30 -6
-106 -36 -169 -67 -64 -31 -159 -67 -212 -80 -98 -26 -268 -82 -317 -106 -35
-17 -68 -68 -128 -201 -32 -72 -59 -118 -82 -137 -18 -16 -46 -45 -62 -63
l-30 -33 15 -105 c20 -135 15 -264 -11 -309 -21 -35 -33 -44 -79 -60 l-29 -11
7 -92 c3 -51 15 -137 27 -192 54 -268 60 -369 28 -491 -27 -101 -36 -326 -17
-399 13 -50 14 -51 110 -110 19 -12 35 -32 40 -50 4 -16 12 -49 18 -72 16 -64
53 -99 161 -154 86 -43 107 -49 159 -49 73 0 115 -19 215 -97 151 -119 196
-123 376 -32 163 81 200 90 347 85 70 -3 165 -12 212 -21 47 -9 146 -18 220
-20 130 -3 140 -4 271 -49 167 -56 206 -58 338 -15 125 42 298 51 427 24 132
-28 191 -19 384 52 179 67 259 85 390 85 93 1 182 -25 346 -102 128 -59 180
-97 198 -145 22 -57 20 -88 -13 -190 -17 -49 -39 -121 -49 -160 -11 -38 -33
-104 -48 -146 l-29 -77 82 -253 c93 -285 133 -423 133 -454 0 -11 -9 -42 -19
-70 -10 -27 -26 -88 -36 -135 -9 -47 -23 -111 -32 -143 -16 -57 -15 -59 10
-125 15 -37 36 -107 47 -156 37 -162 85 -261 204 -431 38 -54 99 -147 135
-205 47 -74 91 -129 151 -187 64 -61 104 -111 160 -202 122 -198 134 -214 191
-258 97 -77 124 -107 199 -232 137 -226 306 -436 526 -655 l100 -98 404 -198
c223 -108 437 -216 475 -240 161 -99 250 -129 730 -249 348 -87 362 -90 430
-81 39 4 93 13 120 19 28 6 120 18 205 26 208 21 279 37 329 73 75 55 130 61
291 32 105 -19 232 2 369 60 115 49 419 102 671 117 96 5 117 10 242 60 76 29
159 58 185 63 26 5 73 16 103 25 30 8 138 27 240 41 l185 26 94 87 c92 83 120
116 215 247 24 34 84 94 132 135 112 93 396 370 526 514 136 149 226 271 335
453 72 120 109 169 172 232 94 92 103 109 141 243 33 117 126 389 146 429 21
41 18 256 -7 423 -16 107 -20 184 -19 323 1 182 1 183 38 290 l36 107 4 230
c2 137 -1 267 -8 321 -6 51 -11 154 -12 230 0 101 -5 159 -19 214 -10 41 -25
118 -34 171 -8 52 -22 120 -31 150 -28 97 -163 398 -303 679 -76 151 -162 331
-191 400 -58 139 -90 185 -261 380 -70 79 -141 175 -184 245 -128 209 -254
333 -433 428 -48 25 -181 78 -295 116 -166 56 -217 78 -260 111 -43 32 -68 43
-118 51 -101 16 -401 106 -554 166 -162 64 -180 73 -420 203 -233 127 -336
176 -410 194 -33 8 -139 20 -235 26 -175 11 -416 36 -429 45 -5 2 -104 11
-222 20 -312 22 -393 33 -504 66 -60 18 -174 39 -290 54 -343 44 -542 53 -720
33z m1935 -2953 c149 -24 207 -43 257 -81 107 -82 364 -222 521 -284 119 -47
147 -86 201 -275 38 -132 70 -200 116 -251 65 -70 120 -289 132 -519 l6 -120
-38 -90 c-56 -137 -150 -316 -225 -429 -156 -236 -373 -472 -550 -598 -181
-129 -433 -236 -680 -288 -96 -21 -122 -22 -325 -17 -453 12 -664 61 -994 233
-140 73 -148 76 -238 83 -102 9 -129 23 -153 82 -7 16 -16 29 -20 29 -16 0
-82 75 -105 120 -13 26 -42 68 -64 94 -72 84 -130 240 -131 355 0 24 8 71 17
105 21 75 23 354 4 486 -7 47 -16 152 -21 234 l-8 148 33 70 c18 38 44 108 56
156 24 91 37 108 151 203 54 45 81 59 187 94 63 21 93 37 125 68 30 29 63 47
121 67 44 15 166 59 270 97 487 179 646 224 857 242 133 12 377 5 498 -14z"/>
<path d="M21122 18795 c-51 -13 -144 -29 -205 -35 -172 -16 -616 -16 -827 0
-233 18 -386 19 -474 1 -79 -16 -123 -49 -203 -153 -24 -32 -65 -70 -91 -85
-43 -25 -58 -28 -162 -31 -63 -2 -141 1 -173 7 -55 10 -61 9 -117 -19 -103
-52 -323 -185 -392 -238 -90 -68 -162 -107 -352 -192 l-159 -70 -124 -118
c-180 -170 -241 -217 -435 -337 -377 -233 -580 -377 -743 -526 -78 -71 -81
-76 -116 -173 -20 -56 -61 -157 -91 -226 l-55 -125 -69 -47 c-38 -27 -96 -61
-129 -76 l-61 -29 -43 -129 c-75 -226 -104 -269 -284 -419 -69 -58 -71 -94
-18 -288 37 -133 40 -153 30 -190 -21 -80 -56 -131 -138 -206 l-81 -73 22 -27
c13 -15 34 -50 47 -78 l24 -51 -38 -188 c-29 -145 -39 -228 -46 -359 -9 -187
-24 -288 -69 -471 -29 -116 -30 -123 -15 -165 24 -67 72 -263 90 -366 12 -72
23 -103 50 -145 55 -83 77 -151 82 -258 6 -109 29 -171 113 -301 57 -89 81
-146 109 -258 11 -44 45 -141 76 -215 59 -146 77 -228 68 -323 -6 -71 15 -153
52 -204 43 -59 92 -170 119 -274 15 -56 51 -149 81 -210 30 -60 67 -140 83
-176 33 -73 48 -87 168 -147 165 -83 179 -85 435 -79 l227 6 82 -50 c45 -27
161 -106 256 -174 l174 -125 139 0 c110 0 176 -6 317 -31 188 -32 241 -33 324
-4 49 17 129 19 183 4 23 -6 59 -32 96 -67 32 -31 97 -92 143 -134 l86 -78
261 0 c300 0 262 -9 437 110 89 61 125 80 151 80 18 0 57 13 86 29 28 16 113
48 187 72 158 49 223 80 304 143 33 25 66 46 75 46 8 0 39 -25 68 -56 l53 -56
0 -71 c0 -40 5 -158 12 -262 11 -185 11 -192 -12 -285 -31 -129 -38 -145 -115
-250 -75 -102 -74 -94 -36 -234 29 -110 28 -218 -4 -326 -14 -46 -25 -104 -25
-129 0 -25 -5 -73 -10 -106 -9 -58 -12 -62 -114 -165 -57 -58 -121 -128 -142
-155 -148 -191 -346 -357 -614 -515 -224 -132 -465 -304 -685 -490 -115 -98
-264 -202 -305 -215 -47 -14 -105 -48 -197 -113 -83 -59 -92 -69 -102 -109
-13 -51 -17 -43 68 -148 208 -258 250 -371 309 -832 l28 -218 250 -246 c335
-330 345 -339 395 -350 46 -11 71 0 221 99 43 28 107 58 149 71 211 64 346
130 474 232 82 65 139 97 304 170 32 14 87 54 133 96 78 72 118 92 212 108 31
5 54 22 120 88 64 66 101 93 176 132 150 77 202 102 247 115 36 11 49 24 106
109 78 115 197 245 285 312 35 26 109 71 165 100 106 54 231 145 497 357 245
196 304 261 380 412 23 47 57 110 76 141 19 31 45 85 58 120 14 35 153 321
310 634 267 535 455 886 513 964 74 97 139 247 233 536 77 240 91 303 97 455
6 137 -3 226 -33 349 -12 45 -13 65 -5 70 10 6 47 129 106 351 12 47 45 148
73 225 27 77 58 176 67 220 l17 81 -36 72 c-42 84 -66 174 -66 255 0 31 23
170 50 308 28 138 50 261 50 274 0 35 -47 192 -84 276 -29 68 -31 80 -20 100
17 31 58 139 79 209 12 38 20 117 25 255 6 158 13 217 30 280 34 121 33 153
-13 290 -22 66 -48 137 -59 158 -10 21 -17 41 -14 45 9 15 68 319 76 395 20
172 -15 331 -140 647 -67 169 -71 188 -71 319 0 75 6 116 25 177 33 108 46
175 46 240 0 144 -101 397 -226 569 -112 154 -201 292 -259 401 -32 60 -102
190 -155 289 -54 99 -120 226 -148 281 -43 86 -55 102 -79 107 -108 21 -257
113 -508 311 -77 61 -240 185 -362 277 l-221 167 -67 -57 c-36 -31 -97 -84
-135 -118 -96 -87 -118 -85 -194 19 -81 111 -127 155 -186 178 -71 28 -136 68
-236 146 -107 83 -255 184 -268 183 -6 -1 -53 -12 -104 -24z"/>
</g>
</svg>
